<?xml version="1.0" encoding="utf-8"?>
<!-- Generator: Adobe Illustrator 24.0.2, SVG Export Plug-In . SVG Version: 6.00 Build 0)  -->
<svg version="1.1" id="Layer_1" xmlns="http://www.w3.org/2000/svg" xmlns:xlink="http://www.w3.org/1999/xlink" x="0px" y="0px"
	 viewBox="0 0 300 280" style="enable-background:new 0 0 300 280;" xml:space="preserve">
<style type="text/css">
	.st0{fill:#FFFFFF;}
</style>
<path class="st0" d="M298.8,137c-29-25.3-104.5-100.6-132.4-124.3C156.6,3.9,150.6,0,144.5,0c-5.5,0-10.4,3.3-10.4,12.1
	c0,9.4,5,14.8,11,20.4c14.6,12.6,110.2,75.8,142.6,101l0,0l0,0c-26.3,1.7-88.7,3.3-147.2,3.3s-110.6-1.7-138-3.3
	c-2.7,2.7-3.8,11,0.5,13.2c29-2.2,79-3.9,136.4-3.9c56.6,0,116.6,1.6,147.5,3.8C253.7,173.8,159.5,235,145.1,247
	c-7.7,7.1-11,12.1-11,20.9c0,8.2,6.5,12.1,12.6,12.1c4.4,0,9.8-3.9,19.7-12.6c27.4-24.2,102.3-98.5,132.4-124.9
	C300.4,141.4,300.4,138.1,298.8,137z"/>
</svg>
