<svg height="24" viewBox="0 0 24 24" width="24" xmlns="http://www.w3.org/2000/svg"><path d="m21.6 0h-19.2c-1.32 0-2.4 1.08-2.4 2.4v19.2c0 1.32 1.08 2.4 2.4 2.4h19.2c1.32 0 2.4-1.08 2.4-2.4v-19.2c0-1.32-1.08-2.4-2.4-2.4zm-9.6 7.2c2.64 0 4.8 2.16 4.8 4.8s-2.16 4.8-4.8 4.8-4.8-2.16-4.8-4.8 2.16-4.8 4.8-4.8zm-9 14.4c-.36 0-.6-.24-.6-.6v-10.2h2.52c-.12.36-.12.84-.12 1.2 0 3.96 3.24 7.2 7.2 7.2s7.2-3.24 7.2-7.2c0-.36 0-.84-.12-1.2h2.52v10.2c0 .36-.24.6-.6.6zm18.6-16.2c0 .36-.24.6-.6.6h-2.4c-.36 0-.6-.24-.6-.6v-2.4c0-.36.24-.6.6-.6h2.4c.36 0 .6.24.6.6z"/></svg>