<svg height="23" viewBox="0 0 28 23" width="28" xmlns="http://www.w3.org/2000/svg"><path d="m27.3108808 3.23930981c-.9937516.44170913-2.0600327.74127121-3.1803581.87500981 1.1439283-.68714734 2.0195768-1.77705942 2.4345922-3.07178362-1.0730312.63634261-2.2574596 1.09840903-3.519491 1.34889232-1.0106046-1.08145937-2.4480923-1.75506468-4.0425066-1.75506468-3.058858 0-5.5390238 2.48788318-5.5390238 5.55457747 0 .43493812.0489265.85974183.1434267 1.26595845-4.60262517-.23189618-8.68391125-2.44389371-11.41545983-5.80510501-.47748607.81916-.74911887 1.77365178-.74911887 2.79253458 0 1.92770343.97857513 3.6286 2.46331285 4.62371787-.90772207-.03044744-1.76144405-.28093073-2.50884233-.69728174v.06939183c0 2.69096941 1.90990018 4.93682201 4.44234549 5.44796721-.46398605.1252416-.95325156.1946335-1.45941415.1946335-.35766235 0-.70354527-.0355368-1.04267817-.1032469.70522174 2.2086341 2.75012214 3.8147365 5.17293492 3.8587702-1.89472368 1.4893577-4.28378641 2.3745019-6.8786583 2.3745019-.44708896 0-.88747204-.0270841-1.32106098-.0761629 2.4514893 1.5790626 5.36189111 2.4997435 8.48992564 2.4997435 10.18889903 0 15.75831983-8.4655827 15.75831983-15.80735394l-.0185735-.71927647c1.0882076-.77857817 2.0296356-1.75679063 2.770328-2.87042338z"/></svg>