<svg height="21" viewBox="0 0 31 21" width="31" xmlns="http://www.w3.org/2000/svg"><path d="m28.859715 2.38181818c-.81375-1.40363636-1.696875-1.66181818-3.495-1.76-1.79625-.11818182-6.313125-.16727272-10.22625-.16727272-3.920625 0-8.43937497.0490909-10.23374997.16545454-1.794375.1-2.679375.35636364-3.500625 1.76181818-.838125 1.40181818-1.269375 3.81636364-1.269375 8.06727272v.0054546.0054545c0 4.2363636.43125 6.6690909 1.269375 8.0563636.82125 1.4036364 1.704375 1.6581819 3.49875 1.7763637 1.79625.1018182 6.31499997.1618182 10.23562497.1618182 3.913125 0 8.43-.06 10.228125-.16 1.798125-.1181819 2.68125-.3727273 3.495-1.7763637.845625-1.3872727 1.273125-3.82 1.273125-8.0527273 0 0 0-.0054545 0-.0090909 0-4.25818178-.4275-6.67272724-1.275-8.07454542zm-17.475 13.52727272v-10.9090909l9.375 5.4545455z"/></svg>