<?xml version="1.0" encoding="utf-8"?>
<!-- Generator: Adobe Illustrator 26.4.1, SVG Export Plug-In . SVG Version: 6.00 Build 0)  -->
<svg version="1.1" id="Layer_1" xmlns="http://www.w3.org/2000/svg" xmlns:xlink="http://www.w3.org/1999/xlink" x="0px" y="0px"
	 viewBox="0 0 57 57" style="enable-background:new 0 0 57 57;" xml:space="preserve">
<style type="text/css">
	.st0{fill:#E52027;}
</style>
<g>
	<path class="st0" d="M57,54.1H2.9V2.9H57V0H0v57h57V54.1z M31.3,34.2c0,6.2-2.3,9.3-6.7,9.3c-0.6,0-1.1,0-1.6-0.1s-0.8-0.1-1.1-0.2
		c-0.3-0.1-0.6-0.2-0.9-0.3V28c0.8-0.7,1.6-1.2,2.6-1.7c0.9-0.4,1.9-0.6,3-0.6c1.8,0,3,0.7,3.7,2.2C30.9,29.3,31.3,31.4,31.3,34.2
		 M33.1,42.9c0.9-1.1,1.5-2.4,2-4c0.4-1.5,0.6-3.2,0.6-5.1c0-1.7-0.2-3.2-0.5-4.6s-0.8-2.5-1.5-3.5c-0.7-1-1.6-1.7-2.7-2.2
		c-1.1-0.5-2.4-0.8-4-0.8c-1.3,0-2.4,0.2-3.3,0.6c-1,0.4-1.9,0.9-2.7,1.5V12h-0.8l-6.8,1.5v1.1l3.4,0.8v29.5
		c0.8,0.4,1.8,0.7,3.1,1.1c1.3,0.3,2.9,0.5,4.8,0.5c1.9,0,3.5-0.3,4.9-0.9C31,44.9,32.2,44,33.1,42.9"/>
</g>
</svg>
