<?xml version="1.0" standalone="no"?>
<!DOCTYPE svg PUBLIC "-//W3C//DTD SVG 20010904//EN"
 "http://www.w3.org/TR/2001/REC-SVG-20010904/DTD/svg10.dtd">
<svg version="1.0" xmlns="http://www.w3.org/2000/svg"
 width="180.000000pt" height="180.000000pt" viewBox="0 0 180.000000 180.000000"
 preserveAspectRatio="xMidYMid meet">
<metadata>
Created by potrace 1.14, written by Peter Selinger 2001-2017
</metadata>
<g transform="translate(0.000000,180.000000) scale(0.100000,-0.100000)"
fill="#000000" stroke="none">
<path d="M0 900 l0 -900 900 0 900 0 0 70 0 70 -830 0 -830 0 0 760 0 760 830
0 830 0 0 70 0 70 -900 0 -900 0 0 -900z"/>
<path d="M592 1395 c-57 -13 -106 -25 -109 -29 -13 -12 8 -35 39 -41 75 -15
68 36 68 -479 l0 -464 28 -10 c73 -28 114 -35 202 -36 108 -1 157 11 222 54
95 63 138 168 138 335 0 57 -5 127 -11 155 -15 69 -64 139 -119 170 -39 22
-57 25 -135 25 -80 0 -96 -3 -139 -28 -27 -15 -50 -27 -52 -27 -2 0 -4 90 -4
200 0 154 -3 200 -12 199 -7 -1 -59 -11 -116 -24z m379 -428 c78 -46 102 -314
39 -436 -41 -82 -129 -120 -231 -101 -28 6 -53 10 -55 10 -2 0 -4 105 -4 233
0 229 0 234 23 254 63 58 168 77 228 40z"/>
</g>
</svg>
