<?xml version="1.0" encoding="utf-8"?>
<!-- Generator: Adobe Illustrator 26.4.1, SVG Export Plug-In . SVG Version: 6.00 Build 0)  -->
<svg version="1.1" id="Layer_1" xmlns="http://www.w3.org/2000/svg" xmlns:xlink="http://www.w3.org/1999/xlink" x="0px" y="0px"
	 viewBox="0 0 93 18" style="enable-background:new 0 0 93 18;" xml:space="preserve">
<style type="text/css">
	.st0{fill:#2C7566;}
</style>
<path class="st0" d="M89.27,7.92h-3.84c0.03-0.46,0.23-0.81,0.6-1.05c0.37-0.24,0.81-0.36,1.32-0.36c0.51,0,0.95,0.12,1.32,0.37
	C89.04,7.12,89.24,7.47,89.27,7.92z M87.61,14.03c1.95,0,3.47-0.57,4.56-1.69l-1.58-2.12c-0.78,0.63-1.66,0.95-2.64,0.95
	c-0.75,0-1.35-0.17-1.82-0.5c-0.46-0.34-0.7-0.66-0.7-0.97h7.2c0.06-0.22,0.09-0.51,0.09-0.88c0-1.54-0.5-2.76-1.52-3.65
	c-1.01-0.89-2.31-1.34-3.88-1.34c-1.69,0-3.02,0.5-4,1.51c-0.98,1.01-1.47,2.22-1.47,3.63c0,1.45,0.52,2.66,1.56,3.62
	C84.45,13.55,85.85,14.03,87.61,14.03z M75.09,11.1c-0.55,0-0.98-0.2-1.31-0.61c-0.33-0.41-0.49-0.93-0.49-1.57
	c0-0.63,0.16-1.16,0.48-1.57c0.34-0.41,0.78-0.61,1.32-0.61c0.54,0,0.98,0.2,1.31,0.61c0.33,0.41,0.49,0.93,0.49,1.57
	c0,0.63-0.16,1.16-0.49,1.57C76.07,10.9,75.63,11.1,75.09,11.1z M74.04,14.03c1.31,0,2.23-0.47,2.79-1.42v1.22h3.83V0.35h-3.83v4.9
	c-0.56-0.96-1.49-1.43-2.79-1.43c-1.32,0-2.41,0.48-3.28,1.45c-0.88,0.96-1.31,2.18-1.31,3.66c0,1.48,0.44,2.7,1.31,3.66
	C71.63,13.55,72.73,14.03,74.04,14.03z M68.24,13.83V4.02H64.4v9.81H68.24z M66.32,3.43c0.68,0,1.21-0.16,1.58-0.49
	c0.37-0.32,0.56-0.73,0.56-1.23c0-0.51-0.18-0.92-0.54-1.24C67.56,0.16,67.03,0,66.32,0s-1.24,0.16-1.6,0.48
	c-0.36,0.32-0.54,0.73-0.54,1.24c0,0.5,0.19,0.91,0.56,1.23C65.11,3.27,65.64,3.43,66.32,3.43z M58.97,14.03
	c1.23,0,2.25-0.27,3.05-0.81c0.81-0.54,1.21-1.33,1.21-2.36c-0.06-1.39-1.1-2.43-3.11-3.13l-1.08-0.45
	c-0.24-0.07-0.41-0.15-0.5-0.22C58.45,7,58.4,6.9,58.4,6.78c0-0.31,0.2-0.47,0.61-0.47c0.51,0,0.89,0.26,1.14,0.78l2.77-0.78
	c-0.67-1.66-1.96-2.5-3.87-2.5c-1.14,0-2.09,0.3-2.85,0.9c-0.76,0.6-1.14,1.37-1.14,2.33c0,0.3,0.04,0.57,0.13,0.83
	c0.09,0.26,0.22,0.48,0.39,0.67c0.17,0.19,0.34,0.36,0.5,0.5c0.16,0.14,0.37,0.28,0.61,0.4c0.25,0.12,0.44,0.22,0.57,0.27
	c0.13,0.05,0.3,0.12,0.53,0.19l0.32,0.11l1.11,0.41c0.27,0.1,0.45,0.18,0.53,0.25c0.08,0.07,0.12,0.16,0.12,0.27
	c0,0.32-0.31,0.48-0.91,0.48c-0.9,0-1.43-0.4-1.6-1.19l-2.79,0.63C54.93,12.98,56.39,14.03,58.97,14.03z M48.72,18l6.21-13.98h-4
	l-1.9,5.02l-1.69-5.02h-4.19l4.08,8.85L44.96,18H48.72z M36.73,13.83V8.46c0-1.11,0.38-1.66,1.14-1.66c0.77,0,1.15,0.55,1.15,1.66
	v5.37h3.84V8.09c0-2.84-1.14-4.27-3.41-4.27c-1.23,0-2.14,0.47-2.72,1.41V4.02H32.9v9.81H36.73z M25.19,13.83V8.46
	c0-1.11,0.38-1.66,1.14-1.66c0.77,0,1.16,0.55,1.16,1.66v5.37h3.83V8.09c0-2.84-1.14-4.27-3.41-4.27c-1.23,0-2.13,0.47-2.72,1.41
	V4.02h-3.83v9.81H25.19z M13.12,14.03c1.23,0,2.13-0.47,2.72-1.42v1.22h3.84V4.02h-3.84v5.37c0,1.11-0.38,1.66-1.13,1.66
	c-0.77,0-1.16-0.55-1.16-1.66V4.02H9.72v5.74C9.72,12.61,10.85,14.03,13.12,14.03z M4.39,14.03c1.23,0,2.25-0.27,3.05-0.81
	c0.8-0.54,1.21-1.33,1.21-2.36c-0.06-1.39-1.1-2.43-3.11-3.13L4.47,7.28c-0.24-0.07-0.41-0.15-0.5-0.22C3.87,7,3.82,6.9,3.82,6.78
	c0-0.31,0.2-0.47,0.61-0.47c0.51,0,0.89,0.26,1.14,0.78l2.77-0.78c-0.67-1.66-1.96-2.5-3.87-2.5c-1.14,0-2.09,0.3-2.85,0.9
	C0.86,5.31,0.48,6.09,0.48,7.04c0,0.3,0.04,0.57,0.13,0.83C0.7,8.13,0.83,8.35,1,8.54c0.18,0.19,0.34,0.36,0.5,0.5
	c0.16,0.14,0.37,0.28,0.61,0.4c0.25,0.12,0.44,0.22,0.57,0.27C2.82,9.77,3,9.84,3.22,9.91l0.32,0.11l1.12,0.41
	c0.27,0.1,0.45,0.18,0.53,0.25c0.08,0.07,0.12,0.17,0.12,0.27c0,0.32-0.3,0.48-0.91,0.48c-0.89,0-1.43-0.4-1.6-1.19L0,10.88
	C0.35,12.98,1.81,14.03,4.39,14.03z"/>
</svg>
