<?xml version="1.0" encoding="utf-8"?>
<!-- Generator: Adobe Illustrator 24.0.2, SVG Export Plug-In . SVG Version: 6.00 Build 0)  -->
<svg version="1.1" id="Layer_1" xmlns="http://www.w3.org/2000/svg" xmlns:xlink="http://www.w3.org/1999/xlink" x="0px" y="0px"
	 viewBox="0 0 203.15 104.24" style="enable-background:new 0 0 203.15 104.24;" xml:space="preserve">
<style type="text/css">
	.st0{fill:#E52027;}
</style>
<g>
	<path class="st0" d="M37.03,99.67c1.08,0,2.13-0.25,3.17-0.74c1.03-0.49,1.96-1.18,2.78-2.08c0.82-0.89,1.48-1.94,1.97-3.16
		c0.49-1.22,0.74-2.53,0.74-3.94c0-1.59-0.27-2.97-0.81-4.11c-0.54-1.15-1.24-2.1-2.11-2.85c-0.87-0.75-1.86-1.3-2.99-1.65
		c-1.13-0.35-2.25-0.53-3.38-0.53h-4.08v-2.81l10.55-13.78l2.39-2.46v-0.28l-3.8,0.42H30.84l-2.74,7.17h-2.39
		c-0.24-0.99-0.48-2.16-0.74-3.52c-0.26-1.36-0.49-2.72-0.7-4.08c-0.21-1.36-0.38-2.67-0.49-3.94c-0.12-1.27-0.18-2.32-0.18-3.17
		h30.67v3.45L42.09,72.45l-3.02,3.09v0.14l2.39-0.49c2.2,0.09,4.18,0.5,5.94,1.23c1.76,0.73,3.23,1.71,4.43,2.95
		c1.2,1.24,2.11,2.69,2.74,4.33c0.63,1.64,0.95,3.45,0.95,5.42c0,2.35-0.5,4.46-1.51,6.33c-1.01,1.88-2.36,3.47-4.04,4.78
		c-1.69,1.31-3.66,2.31-5.91,2.99c-2.25,0.68-4.62,1.02-7.1,1.02c-1.41,0-2.81-0.11-4.22-0.32c-1.41-0.21-2.73-0.5-3.97-0.88
		c-1.24-0.38-2.37-0.82-3.38-1.34c-1.01-0.52-1.86-1.08-2.57-1.69l2.6-7.31h2.04c0.28,0.33,0.67,0.76,1.16,1.3
		c0.49,0.54,1.01,1.11,1.55,1.72c0.54,0.61,1.07,1.22,1.58,1.83c0.52,0.61,0.96,1.13,1.34,1.55c0.47,0.09,1,0.21,1.58,0.35
		C35.26,99.6,36.04,99.67,37.03,99.67z"/>
	<path class="st0" d="M57.41,78.78c0-4.22,0.46-7.91,1.37-11.08c0.91-3.17,2.18-5.81,3.8-7.95c1.62-2.13,3.54-3.74,5.77-4.82
		c2.23-1.08,4.65-1.62,7.28-1.62c5.63,0,10.08,2.12,13.36,6.36c3.28,4.24,4.92,10.61,4.92,19.1c0,4.22-0.46,7.91-1.37,11.08
		c-0.91,3.17-2.2,5.81-3.87,7.95c-1.67,2.13-3.65,3.74-5.94,4.82c-2.3,1.08-4.81,1.62-7.53,1.62c-2.86,0-5.39-0.57-7.6-1.72
		c-2.2-1.15-4.07-2.81-5.59-4.99c-1.52-2.18-2.67-4.84-3.45-7.98C57.8,86.4,57.41,82.81,57.41,78.78z M67.96,78.78
		c0,3.35,0.11,6.36,0.32,9.01c0.21,2.66,0.6,4.9,1.16,6.74c0.56,1.84,1.3,3.25,2.22,4.23c0.91,0.98,2.08,1.47,3.48,1.47
		c1.64,0,2.99-0.4,4.04-1.19c1.05-0.79,1.9-2.05,2.53-3.77c0.63-1.72,1.07-3.94,1.3-6.64c0.23-2.7,0.35-5.99,0.35-9.85
		c0-3.35-0.09-6.36-0.28-9.01c-0.19-2.66-0.55-4.9-1.09-6.74c-0.54-1.84-1.31-3.25-2.32-4.23c-1.01-0.98-2.36-1.47-4.04-1.47
		c-1.5,0-2.74,0.4-3.73,1.19c-0.98,0.79-1.77,2.05-2.36,3.77c-0.59,1.72-1,3.95-1.23,6.67C68.08,71.69,67.96,74.96,67.96,78.78z"/>
	<path class="st0" d="M96.18,78.78c0-4.22,0.46-7.91,1.37-11.08c0.91-3.17,2.18-5.81,3.8-7.95c1.62-2.13,3.54-3.74,5.77-4.82
		s4.65-1.62,7.28-1.62c5.63,0,10.08,2.12,13.36,6.36c3.28,4.24,4.92,10.61,4.92,19.1c0,4.22-0.46,7.91-1.37,11.08
		s-2.2,5.81-3.87,7.95c-1.67,2.13-3.65,3.74-5.94,4.82c-2.3,1.08-4.81,1.62-7.53,1.62c-2.86,0-5.39-0.57-7.6-1.72
		c-2.2-1.15-4.07-2.81-5.59-4.99c-1.52-2.18-2.67-4.84-3.45-7.98C96.57,86.4,96.18,82.81,96.18,78.78z M106.73,78.78
		c0,3.35,0.11,6.36,0.32,9.01c0.21,2.66,0.6,4.9,1.16,6.74c0.56,1.84,1.3,3.25,2.22,4.23c0.91,0.98,2.08,1.47,3.48,1.47
		c1.64,0,2.99-0.4,4.04-1.19c1.05-0.79,1.9-2.05,2.53-3.77c0.63-1.72,1.07-3.94,1.3-6.64c0.23-2.7,0.35-5.99,0.35-9.85
		c0-3.35-0.09-6.36-0.28-9.01c-0.19-2.66-0.55-4.9-1.09-6.74c-0.54-1.84-1.31-3.25-2.32-4.23c-1.01-0.98-2.36-1.47-4.04-1.47
		c-1.5,0-2.74,0.4-3.73,1.19c-0.98,0.79-1.77,2.05-2.36,3.77c-0.59,1.72-1,3.95-1.23,6.67C106.85,71.69,106.73,74.96,106.73,78.78z"
		/>
</g>
<g>
	<path class="st0" d="M69.55,28.23h-8.5v1.06l2.47,0.85l5.08,13.82c0.3,0.82,0.63,1.42,0.97,1.78c0.34,0.36,0.92,0.55,1.74,0.55
		c0.75,0,1.28-0.14,1.59-0.42c0.31-0.28,0.56-0.72,0.78-1.3l5.18-14.42l2.43-0.85v-1.06h-7.44v1.06l2.36,0.74L71.67,43.5
		l-4.51-13.47l2.4-0.74V28.23z"/>
	<rect x="134.52" y="54.09" class="st0" width="68.63" height="2.91"/>
	<path class="st0" d="M18.56,46.04c1.02,0.26,2.29,0.39,3.79,0.39c1.5,0,2.8-0.25,3.9-0.74c1.09-0.49,1.99-1.18,2.7-2.06
		c0.71-0.88,1.22-1.93,1.55-3.14c0.33-1.21,0.49-2.54,0.49-4c0-1.34-0.12-2.55-0.37-3.63c-0.25-1.08-0.64-2-1.18-2.77
		c-0.54-0.76-1.24-1.35-2.1-1.76c-0.86-0.41-1.91-0.62-3.15-0.62c-0.99,0-1.86,0.15-2.63,0.44c-0.76,0.29-1.49,0.7-2.17,1.22V19.28
		h-0.6l-5.39,1.16v0.88l2.71,0.6v23.27C16.72,45.5,17.54,45.78,18.56,46.04z M19.39,31.86c0.61-0.54,1.29-0.98,2.04-1.32
		c0.75-0.34,1.53-0.51,2.33-0.51c1.41,0,2.39,0.58,2.94,1.73s0.83,2.83,0.83,5.04c0,4.89-1.78,7.33-5.32,7.33
		c-0.47,0-0.88-0.02-1.23-0.07c-0.35-0.05-0.65-0.09-0.88-0.14c-0.26-0.07-0.49-0.14-0.71-0.21V31.86z"/>
	<path class="st0" d="M48.79,35.6c0-2.42-0.55-4.34-1.64-5.76c-1.09-1.42-2.85-2.13-5.27-2.13c-1.13,0-2.16,0.18-3.1,0.55
		c-0.94,0.37-1.75,0.92-2.43,1.68c-0.68,0.75-1.21,1.72-1.59,2.91c-0.38,1.19-0.56,2.6-0.56,4.25c0,1.67,0.2,3.1,0.6,4.28
		s0.96,2.16,1.67,2.91c0.72,0.75,1.58,1.3,2.59,1.64c1.01,0.34,2.13,0.51,3.35,0.51c0.85,0,1.61-0.08,2.29-0.23
		c0.68-0.15,1.27-0.33,1.78-0.55c0.51-0.21,0.93-0.43,1.29-0.65c0.35-0.22,0.62-0.41,0.81-0.55l-1.06-1.8
		c-0.21,0.12-0.48,0.27-0.79,0.46c-0.32,0.19-0.69,0.36-1.11,0.53s-0.89,0.3-1.39,0.42c-0.51,0.12-1.04,0.18-1.6,0.18
		c-0.77,0-1.47-0.12-2.08-0.37c-0.61-0.25-1.13-0.64-1.57-1.16c-0.43-0.53-0.78-1.22-1.02-2.06c-0.25-0.85-0.38-1.88-0.4-3.1h11.24
		V35.6z M37.58,35.42c0-0.64,0.07-1.28,0.19-1.94c0.13-0.66,0.36-1.26,0.69-1.8c0.33-0.54,0.77-0.99,1.32-1.34
		c0.55-0.35,1.25-0.53,2.1-0.53c0.73,0,1.33,0.16,1.82,0.49c0.48,0.33,0.86,0.76,1.15,1.29c0.28,0.53,0.48,1.13,0.58,1.8
		c0.11,0.67,0.16,1.35,0.16,2.03H37.58z"/>
	<polygon class="st0" points="51.08,44.84 51.08,45.9 59.82,45.9 59.82,44.8 57.11,43.99 57.11,19.28 56.51,19.28 51.11,20.44 
		51.11,21.32 53.83,21.92 53.83,44.03 	"/>
	<path class="st0" d="M137.34,44.8v1.09h8.99v-1.13l-3-0.81V32.29c0.59-0.47,1.22-0.83,1.9-1.09c0.68-0.26,1.38-0.39,2.08-0.39
		c0.33,0,0.62,0.02,0.86,0.07c0.25,0.05,0.46,0.09,0.65,0.14c0.21,0.07,0.41,0.13,0.6,0.18l0.39-2.96
		c-0.07-0.05-0.26-0.11-0.56-0.18c-0.31-0.07-0.69-0.1-1.16-0.1c-1.01,0-1.93,0.22-2.75,0.65c-0.82,0.43-1.56,0.99-2.22,1.67
		l-0.39-2.57l-5.39,1.16v0.88l2.71,0.6v13.64L137.34,44.8z"/>
	<path class="st0" d="M166.56,35.6c0-2.42-0.55-4.34-1.64-5.76c-1.09-1.42-2.85-2.13-5.27-2.13c-1.13,0-2.16,0.18-3.1,0.55
		c-0.94,0.37-1.75,0.92-2.43,1.68c-0.68,0.75-1.21,1.72-1.59,2.91c-0.38,1.19-0.56,2.6-0.56,4.25c0,1.67,0.2,3.1,0.6,4.28
		c0.4,1.19,0.96,2.16,1.67,2.91c0.72,0.75,1.58,1.3,2.59,1.64c1.01,0.34,2.13,0.51,3.35,0.51c0.85,0,1.61-0.08,2.29-0.23
		c0.68-0.15,1.27-0.33,1.78-0.55c0.51-0.21,0.93-0.43,1.29-0.65c0.35-0.22,0.62-0.41,0.81-0.55l-1.06-1.8
		c-0.21,0.12-0.48,0.27-0.79,0.46c-0.32,0.19-0.69,0.36-1.11,0.53c-0.42,0.16-0.89,0.3-1.39,0.42c-0.51,0.12-1.04,0.18-1.6,0.18
		c-0.78,0-1.47-0.12-2.08-0.37c-0.61-0.25-1.14-0.64-1.57-1.16c-0.43-0.53-0.78-1.22-1.02-2.06c-0.25-0.85-0.38-1.88-0.41-3.1h11.25
		V35.6z M155.35,35.42c0-0.64,0.07-1.28,0.19-1.94c0.13-0.66,0.36-1.26,0.69-1.8c0.33-0.54,0.77-0.99,1.32-1.34
		c0.55-0.35,1.25-0.53,2.1-0.53c0.73,0,1.33,0.16,1.82,0.49c0.48,0.33,0.86,0.76,1.15,1.29c0.28,0.53,0.48,1.13,0.58,1.8
		c0.11,0.67,0.16,1.35,0.16,2.03H155.35z"/>
	<path class="st0" d="M96.66,35.6c0-2.42-0.55-4.34-1.64-5.76c-1.09-1.42-2.85-2.13-5.27-2.13c-1.13,0-2.16,0.18-3.1,0.55
		c-0.94,0.37-1.75,0.92-2.43,1.68c-0.68,0.75-1.21,1.72-1.59,2.91c-0.38,1.19-0.56,2.6-0.56,4.25c0,1.67,0.2,3.1,0.6,4.28
		c0.4,1.19,0.96,2.16,1.67,2.91c0.72,0.75,1.58,1.3,2.59,1.64c1.01,0.34,2.13,0.51,3.35,0.51c0.85,0,1.61-0.08,2.29-0.23
		c0.68-0.15,1.27-0.33,1.78-0.55c0.51-0.21,0.93-0.43,1.29-0.65c0.35-0.22,0.62-0.41,0.81-0.55l-1.06-1.8
		c-0.21,0.12-0.48,0.27-0.79,0.46s-0.69,0.36-1.11,0.53c-0.42,0.16-0.89,0.3-1.39,0.42c-0.51,0.12-1.04,0.18-1.6,0.18
		c-0.78,0-1.47-0.12-2.08-0.37c-0.61-0.25-1.13-0.64-1.57-1.16c-0.43-0.53-0.78-1.22-1.02-2.06c-0.25-0.85-0.38-1.88-0.4-3.1h11.24
		V35.6z M85.45,35.42c0-0.64,0.07-1.28,0.19-1.94c0.13-0.66,0.36-1.26,0.69-1.8c0.33-0.54,0.77-0.99,1.32-1.34
		c0.55-0.35,1.25-0.53,2.1-0.53c0.73,0,1.33,0.16,1.82,0.49c0.48,0.33,0.86,0.76,1.15,1.29c0.28,0.53,0.48,1.13,0.58,1.8
		c0.11,0.67,0.16,1.35,0.16,2.03H85.45z"/>
	<polygon class="st0" points="0,0 0,57 16.33,57 16.33,54.09 2.91,54.09 2.91,2.91 203.15,2.91 203.15,0 	"/>
	<path class="st0" d="M110.64,28.02c-0.62-0.21-1.38-0.32-2.27-0.32c-1.25,0-2.37,0.23-3.37,0.69c-1,0.46-1.84,1.11-2.52,1.96
		c-0.68,0.85-1.21,1.86-1.57,3.05c-0.36,1.19-0.55,2.51-0.55,3.97c0,1.34,0.12,2.56,0.37,3.67c0.25,1.1,0.65,2.06,1.2,2.85
		c0.55,0.8,1.27,1.42,2.17,1.87c0.89,0.45,1.99,0.67,3.28,0.67c0.61,0,1.18-0.07,1.71-0.19c0.53-0.13,1.01-0.29,1.45-0.49
		c0.43-0.2,0.82-0.41,1.15-0.62c0.33-0.21,0.59-0.4,0.77-0.56l0.88,1.83l4.65-0.67v-1.13l-2.75-0.6V19.28h-0.6l-5.39,1.16v0.88
		l2.72,0.6v6.63C111.7,28.41,111.26,28.23,110.64,28.02z M111.96,42.33c-0.12,0.14-0.29,0.31-0.53,0.51
		c-0.23,0.2-0.53,0.39-0.88,0.58c-0.35,0.19-0.75,0.35-1.2,0.48c-0.45,0.13-0.95,0.19-1.52,0.19c-1.48,0-2.52-0.57-3.12-1.71
		c-0.6-1.14-0.9-2.81-0.9-5.02c0-2.47,0.42-4.31,1.27-5.54c0.85-1.22,2.07-1.83,3.67-1.83c0.45,0,0.85,0.04,1.22,0.12
		c0.36,0.08,0.69,0.17,0.97,0.26c0.28,0.09,0.51,0.19,0.69,0.28c0.18,0.09,0.29,0.15,0.34,0.18V42.33z"/>
	<path class="st0" d="M134.52,35.6c0-2.42-0.55-4.34-1.64-5.76c-1.09-1.42-2.85-2.13-5.27-2.13c-1.13,0-2.16,0.18-3.1,0.55
		c-0.94,0.37-1.75,0.92-2.43,1.68c-0.68,0.75-1.21,1.72-1.59,2.91c-0.38,1.19-0.56,2.6-0.56,4.25c0,1.67,0.2,3.1,0.6,4.28
		c0.4,1.19,0.96,2.16,1.67,2.91c0.72,0.75,1.58,1.3,2.59,1.64c1.01,0.34,2.13,0.51,3.35,0.51c0.85,0,1.61-0.08,2.29-0.23
		c0.68-0.15,1.27-0.33,1.78-0.55c0.51-0.21,0.93-0.43,1.29-0.65c0.35-0.22,0.62-0.41,0.81-0.55l-1.06-1.8
		c-0.21,0.12-0.48,0.27-0.79,0.46c-0.32,0.19-0.69,0.36-1.11,0.53s-0.89,0.3-1.39,0.42c-0.51,0.12-1.04,0.18-1.6,0.18
		c-0.77,0-1.47-0.12-2.08-0.37c-0.61-0.25-1.14-0.64-1.57-1.16c-0.43-0.53-0.78-1.22-1.02-2.06c-0.25-0.85-0.38-1.88-0.41-3.1h11.25
		V35.6z M123.31,35.42c0-0.64,0.07-1.28,0.19-1.94c0.13-0.66,0.36-1.26,0.69-1.8c0.33-0.54,0.77-0.99,1.32-1.34
		c0.55-0.35,1.25-0.53,2.1-0.53c0.73,0,1.33,0.16,1.82,0.49c0.48,0.33,0.86,0.76,1.15,1.29c0.28,0.53,0.48,1.13,0.58,1.8
		c0.11,0.67,0.16,1.35,0.16,2.03H123.31z"/>
</g>
</svg>
