<?xml version="1.0" encoding="utf-8"?>
<!-- Generator: Adobe Illustrator 24.0.2, SVG Export Plug-In . SVG Version: 6.00 Build 0)  -->
<svg version="1.1" id="Layer_1" xmlns="http://www.w3.org/2000/svg" xmlns:xlink="http://www.w3.org/1999/xlink" x="0px" y="0px"
	 viewBox="0 0 203 57" style="enable-background:new 0 0 203 57;" xml:space="preserve">
<style type="text/css">
	.st0{fill:#E52027;}
</style>
<g>
	<path class="st0" d="M155.24,35.43c0-0.64,0.07-1.28,0.19-1.94c0.13-0.66,0.36-1.26,0.69-1.8c0.33-0.54,0.77-0.99,1.32-1.34
		c0.55-0.35,1.25-0.53,2.1-0.53c0.73,0,1.33,0.16,1.82,0.49c0.48,0.33,0.86,0.76,1.15,1.29c0.28,0.53,0.48,1.13,0.58,1.8
		c0.11,0.67,0.16,1.35,0.16,2.03H155.24z M155.61,40.64c-0.25-0.85-0.38-1.88-0.41-3.1h11.24V35.6c0-2.42-0.55-4.34-1.64-5.76
		c-1.09-1.42-2.85-2.13-5.27-2.13c-1.13,0-2.16,0.18-3.1,0.55c-0.94,0.37-1.75,0.92-2.43,1.68c-0.68,0.75-1.21,1.72-1.59,2.91
		c-0.38,1.19-0.56,2.6-0.56,4.25c0,1.67,0.2,3.1,0.6,4.28c0.4,1.19,0.96,2.16,1.67,2.91c0.72,0.75,1.58,1.3,2.59,1.64
		c1.01,0.34,2.13,0.51,3.35,0.51c0.85,0,1.61-0.08,2.29-0.23c0.68-0.15,1.27-0.33,1.78-0.55c0.51-0.21,0.93-0.43,1.29-0.65
		c0.35-0.22,0.62-0.41,0.81-0.55l-1.06-1.8c-0.21,0.12-0.48,0.27-0.79,0.46c-0.32,0.19-0.69,0.36-1.11,0.53
		c-0.42,0.16-0.89,0.31-1.39,0.42c-0.51,0.12-1.04,0.18-1.6,0.18c-0.78,0-1.47-0.12-2.08-0.37c-0.61-0.25-1.14-0.63-1.57-1.16
		C156.19,42.18,155.85,41.49,155.61,40.64 M203,54.09H2.9V2.91h200.09V0H0v57h203V54.09z M139.95,30.35v13.64l-2.71,0.81v1.09h8.98
		v-1.13l-3-0.81V32.28c0.59-0.47,1.22-0.83,1.9-1.09s1.38-0.39,2.08-0.39c0.33,0,0.62,0.02,0.86,0.07c0.25,0.05,0.46,0.09,0.65,0.14
		c0.21,0.07,0.41,0.13,0.6,0.18l0.39-2.96c-0.07-0.05-0.26-0.11-0.56-0.18c-0.31-0.07-0.69-0.1-1.16-0.1
		c-1.01,0-1.93,0.22-2.75,0.65c-0.82,0.43-1.56,0.99-2.22,1.67l-0.39-2.57l-5.39,1.16v0.88L139.95,30.35z M123.21,35.43
		c0-0.64,0.07-1.28,0.19-1.94c0.13-0.66,0.36-1.26,0.69-1.8c0.33-0.54,0.77-0.99,1.32-1.34c0.55-0.35,1.25-0.53,2.1-0.53
		c0.73,0,1.33,0.16,1.82,0.49c0.48,0.33,0.86,0.76,1.15,1.29c0.28,0.53,0.48,1.13,0.58,1.8c0.11,0.67,0.16,1.35,0.16,2.03H123.21z
		 M123.59,40.64c-0.25-0.85-0.38-1.88-0.41-3.1h11.24V35.6c0-2.42-0.55-4.34-1.64-5.76c-1.09-1.42-2.85-2.13-5.27-2.13
		c-1.13,0-2.16,0.18-3.1,0.55s-1.75,0.92-2.43,1.68c-0.68,0.75-1.21,1.72-1.59,2.91c-0.38,1.19-0.56,2.6-0.56,4.25
		c0,1.67,0.2,3.1,0.6,4.28c0.4,1.19,0.96,2.16,1.67,2.91c0.72,0.75,1.58,1.3,2.59,1.64c1.01,0.34,2.13,0.51,3.35,0.51
		c0.85,0,1.61-0.08,2.29-0.23c0.68-0.15,1.27-0.33,1.78-0.55c0.51-0.21,0.93-0.43,1.29-0.65c0.35-0.22,0.62-0.41,0.81-0.55
		l-1.06-1.8c-0.21,0.12-0.48,0.27-0.79,0.46c-0.32,0.19-0.69,0.36-1.11,0.53c-0.42,0.17-0.89,0.31-1.39,0.42
		c-0.51,0.12-1.04,0.18-1.6,0.18c-0.77,0-1.47-0.12-2.08-0.37s-1.14-0.63-1.57-1.16C124.17,42.18,123.83,41.49,123.59,40.64
		 M111.87,30.84v11.49c-0.12,0.14-0.29,0.31-0.53,0.51c-0.23,0.2-0.53,0.39-0.88,0.58c-0.35,0.19-0.75,0.35-1.2,0.48
		c-0.45,0.13-0.95,0.19-1.52,0.19c-1.48,0-2.52-0.57-3.12-1.71c-0.6-1.14-0.9-2.81-0.9-5.02c0-2.47,0.42-4.31,1.27-5.54
		c0.85-1.22,2.07-1.83,3.67-1.83c0.45,0,0.85,0.04,1.22,0.12c0.36,0.08,0.69,0.17,0.97,0.26s0.51,0.19,0.69,0.28
		C111.72,30.74,111.83,30.82,111.87,30.84 M111.87,21.92v6.63c-0.26-0.14-0.7-0.32-1.32-0.53s-1.38-0.32-2.27-0.32
		c-1.25,0-2.37,0.23-3.37,0.69c-1,0.46-1.84,1.11-2.52,1.96c-0.68,0.85-1.21,1.86-1.57,3.05c-0.36,1.19-0.55,2.51-0.55,3.97
		c0,1.34,0.12,2.56,0.37,3.67c0.25,1.1,0.65,2.06,1.2,2.85c0.55,0.8,1.27,1.42,2.17,1.87c0.89,0.45,1.99,0.67,3.28,0.67
		c0.61,0,1.18-0.07,1.71-0.19c0.53-0.13,1.01-0.29,1.45-0.49c0.43-0.2,0.82-0.41,1.15-0.62s0.59-0.4,0.77-0.56l0.88,1.83l4.65-0.67
		V44.6l-2.75-0.6V19.29h-0.6l-5.39,1.16v0.88L111.87,21.92z M85.38,35.43c0-0.64,0.07-1.28,0.19-1.94c0.13-0.66,0.36-1.26,0.69-1.8
		c0.33-0.54,0.77-0.99,1.32-1.34c0.55-0.35,1.25-0.53,2.1-0.53c0.73,0,1.33,0.16,1.82,0.49c0.48,0.33,0.86,0.76,1.15,1.29
		c0.28,0.53,0.48,1.13,0.58,1.8c0.1,0.67,0.16,1.35,0.16,2.03H85.38z M85.75,40.64c-0.25-0.85-0.38-1.88-0.4-3.1h11.23V35.6
		c0-2.42-0.55-4.34-1.64-5.76c-1.09-1.42-2.85-2.13-5.27-2.13c-1.13,0-2.16,0.18-3.1,0.55s-1.75,0.92-2.43,1.68
		c-0.68,0.75-1.21,1.72-1.59,2.91C82.18,34.04,82,35.45,82,37.1c0,1.67,0.2,3.1,0.6,4.28c0.4,1.18,0.96,2.16,1.67,2.91
		c0.72,0.75,1.58,1.3,2.59,1.64c1.01,0.34,2.13,0.51,3.35,0.51c0.85,0,1.61-0.08,2.29-0.23c0.68-0.15,1.27-0.33,1.78-0.55
		c0.51-0.21,0.93-0.43,1.29-0.65c0.35-0.22,0.62-0.41,0.81-0.55l-1.06-1.8c-0.21,0.12-0.48,0.27-0.79,0.46
		c-0.32,0.19-0.69,0.36-1.11,0.53c-0.42,0.17-0.89,0.31-1.39,0.42c-0.51,0.12-1.04,0.18-1.6,0.18c-0.77,0-1.47-0.12-2.08-0.37
		s-1.13-0.63-1.57-1.16C86.34,42.18,86,41.49,85.75,40.64 M73.8,29.29l2.36,0.74L71.61,43.5L67.1,30.03l2.4-0.74v-1.06H61v1.06
		l2.47,0.85l5.08,13.82c0.3,0.82,0.63,1.42,0.97,1.78s0.92,0.55,1.74,0.55c0.75,0,1.28-0.14,1.59-0.42c0.3-0.28,0.56-0.72,0.77-1.3
		l5.18-14.42l2.43-0.85v-1.06h-7.43v1.05H73.8z M53.78,21.92v22.1l-2.75,0.81v1.06h8.73V44.8l-2.71-0.81V19.28h-0.6l-5.39,1.16v0.88
		L53.78,21.92z M37.54,35.43c0-0.64,0.07-1.28,0.19-1.94c0.13-0.66,0.36-1.26,0.69-1.8c0.33-0.54,0.77-0.99,1.32-1.34
		c0.55-0.35,1.25-0.53,2.1-0.53c0.73,0,1.33,0.16,1.82,0.49c0.48,0.33,0.86,0.76,1.14,1.29s0.48,1.13,0.58,1.8
		c0.11,0.67,0.16,1.35,0.16,2.03H37.54z M37.91,40.64c-0.25-0.85-0.38-1.88-0.4-3.1h11.23V35.6c0-2.42-0.55-4.34-1.64-5.76
		s-2.85-2.13-5.27-2.13c-1.13,0-2.16,0.18-3.1,0.55s-1.75,0.92-2.43,1.68c-0.68,0.75-1.21,1.72-1.59,2.91
		c-0.38,1.19-0.56,2.6-0.56,4.25c0,1.67,0.2,3.1,0.6,4.28c0.4,1.18,0.96,2.16,1.67,2.91c0.72,0.75,1.58,1.3,2.59,1.64
		c1.01,0.34,2.13,0.51,3.35,0.51c0.85,0,1.61-0.08,2.29-0.23c0.68-0.15,1.27-0.33,1.78-0.55c0.51-0.21,0.93-0.43,1.29-0.65
		c0.35-0.22,0.62-0.41,0.81-0.55l-1.06-1.8c-0.21,0.12-0.48,0.27-0.79,0.46c-0.32,0.19-0.69,0.36-1.11,0.53s-0.89,0.31-1.39,0.42
		c-0.51,0.12-1.04,0.18-1.6,0.18c-0.77,0-1.47-0.12-2.08-0.37s-1.13-0.63-1.57-1.16C38.5,42.18,38.16,41.49,37.91,40.64 M27.51,36.8
		c0,4.89-1.78,7.33-5.32,7.33c-0.47,0-0.88-0.02-1.23-0.07c-0.35-0.05-0.65-0.09-0.88-0.14c-0.26-0.07-0.49-0.14-0.7-0.21V31.87
		c0.61-0.54,1.29-0.98,2.04-1.32c0.75-0.34,1.53-0.51,2.33-0.51c1.41,0,2.39,0.58,2.94,1.73C27.23,32.91,27.51,34.59,27.51,36.8
		 M28.92,43.62c0.7-0.88,1.22-1.93,1.55-3.14c0.33-1.21,0.49-2.54,0.49-4c0-1.34-0.12-2.55-0.37-3.63c-0.25-1.08-0.64-2-1.18-2.77
		c-0.54-0.76-1.24-1.35-2.1-1.76c-0.86-0.41-1.91-0.62-3.15-0.62c-0.99,0-1.86,0.15-2.63,0.44c-0.76,0.29-1.49,0.7-2.17,1.22V19.28
		h-0.6l-5.39,1.16v0.88l2.71,0.6v23.27c0.61,0.31,1.43,0.59,2.45,0.85s2.29,0.39,3.79,0.39s2.8-0.25,3.89-0.74
		C27.31,45.19,28.21,44.5,28.92,43.62"/>
</g>
</svg>
